<svg xmlns="http://www.w3.org/2000/svg" version="1.1" xmlns:xlink="http://www.w3.org/1999/xlink" width="512" height="512" x="0" y="0" viewBox="0 0 24 24" style="enable-background:new 0 0 512 512" xml:space="preserve" class=""><g><path d="M13 23h8a1 1 0 0 0 1-1V2a1 1 0 0 0-1-1h-8a1 1 0 0 0 0 2h7v18h-7a1 1 0 0 0 0 2z" fill="#FFFFFF" opacity="1" data-original="#000000" class=""></path><path d="M2 12a1 1 0 0 0 1 1h11.586l-2.293 2.293a1 1 0 1 0 1.414 1.414l4-4a.99.99 0 0 0 .217-.326 1 1 0 0 0 0-.764.99.99 0 0 0-.217-.326l-4-4a1 1 0 1 0-1.414 1.414L14.586 11H3a1 1 0 0 0-1 1z" fill="#FFFFFF" opacity="1" data-original="#000000" class=""></path></g></svg>